# xmcd CD database file
#
# Track frame offsets:
#	180
#	10963
#	22657
#	31483
#	45918
#	58714
#	75479
#	106611
#	140094
#	164333
#	183172
#	198335
#	210621
#	219158
#	233870
#
# Disc length: 3319 seconds
#
# Revision: 0
# Processed by: cddbd v1.5.2PL0 Copyright (c) Steve Scherf et al.
# Submitted via: CDex 1.70beta2
#
DISCID=b60cf50f
DTITLE=büdi siebert - pyramid call
DYEAR=1994
DGENRE=New Age
TTITLE0=büdi siebert - life power
TTITLE1=büdi siebert - sun rise
TTITLE2=büdi siebert - feather of truth
TTITLE3=büdi siebert - third eye
TTITLE4=büdi siebert - sphinx
TTITLE5=büdi siebert - flight of the falcon
TTITLE6=büdi siebert - voice of the heart
TTITLE7=büdi siebert - cosmic soul
TTITLE8=büdi siebert - golden kobra
TTITLE9=büdi siebert - sun set
TTITLE10=büdi siebert - illuminated pyramid
TTITLE11=büdi siebert - ankh of the earth
TTITLE12=büdi siebert - life dream
TTITLE13=büdi siebert - horus
TTITLE14=büdi siebert - remember all
EXTD=YEAR: 1994
EXTT0=
EXTT1=
EXTT2=
EXTT3=
EXTT4=
EXTT5=
EXTT6=
EXTT7=
EXTT8=
EXTT9=
EXTT10=
EXTT11=
EXTT12=
EXTT13=
EXTT14=
PLAYORDER=
